<?xml version="1.0" encoding="UTF-8" standalone="no"?>
<!-- Generator: Adobe Illustrator 19.0.0, SVG Export Plug-In . SVG Version: 6.00 Build 0)  -->

<svg
   xmlns:dc="http://purl.org/dc/elements/1.1/"
   xmlns:cc="http://creativecommons.org/ns#"
   xmlns:rdf="http://www.w3.org/1999/02/22-rdf-syntax-ns#"
   xmlns:svg="http://www.w3.org/2000/svg"
   xmlns="http://www.w3.org/2000/svg"
   xmlns:sodipodi="http://sodipodi.sourceforge.net/DTD/sodipodi-0.dtd"
   xmlns:inkscape="http://www.inkscape.org/namespaces/inkscape"
   version="1.1"
   id="Capa_1"
   x="0px"
   y="0px"
   viewBox="0 0 512 512"
   style="enable-background:new 0 0 512 512;"
   xml:space="preserve"
   sodipodi:docname="google-cloud.svg"
   inkscape:version="0.92.4 (f8dce91, 2019-08-02)"><metadata
   id="metadata3883"><rdf:RDF><cc:Work
       rdf:about=""><dc:format>image/svg+xml</dc:format><dc:type
         rdf:resource="http://purl.org/dc/dcmitype/StillImage" /><dc:title></dc:title></cc:Work></rdf:RDF></metadata><defs
   id="defs3881" /><sodipodi:namedview
   pagecolor="#ffffff"
   bordercolor="#666666"
   borderopacity="1"
   objecttolerance="10"
   gridtolerance="10"
   guidetolerance="10"
   inkscape:pageopacity="0"
   inkscape:pageshadow="2"
   inkscape:window-width="3373"
   inkscape:window-height="1385"
   id="namedview3879"
   showgrid="false"
   inkscape:zoom="2.3515625"
   inkscape:cx="256"
   inkscape:cy="256"
   inkscape:window-x="67"
   inkscape:window-y="27"
   inkscape:window-maximized="1"
   inkscape:current-layer="Capa_1" />
<g
   id="g3822"
   style="fill:#ffffff">
	<g
   id="g3820"
   style="fill:#ffffff">
		<path
   d="M314.717,154.299H197.283L138.566,256l58.717,101.701h117.434L373.434,256L314.717,154.299z M256,316.001    c-33.085,0-60.001-26.917-60.001-60.001s26.917-60.001,60.001-60.001s60.001,26.917,60.001,60.001S289.085,316.001,256,316.001z"
   id="path3818"
   style="fill:#ffffff" />
	</g>
</g>
<g
   id="g3828"
   style="fill:#ffffff">
	<g
   id="g3826"
   style="fill:#ffffff">
		<path
   d="M256,225.999c-16.542,0-30.001,13.458-30.001,30.001S239.458,286,256,286s30.001-13.458,30.001-30.001    S272.542,225.999,256,225.999z"
   id="path3824"
   style="fill:#ffffff" />
	</g>
</g>
<g
   id="g3834"
   style="fill:#ffffff">
	<g
   id="g3832"
   style="fill:#ffffff">
		<polygon
   points="384,34.297 128,34.297 69.283,135.997 121.245,225.999 179.963,124.299 435.963,124.299   "
   id="polygon3830"
   style="fill:#ffffff" />
	</g>
</g>
<g
   id="g3840"
   style="fill:#ffffff">
	<g
   id="g3838"
   style="fill:#ffffff">
		<polygon
   points="453.284,154.299 349.359,154.299 408.075,255.999 280.076,477.703 384,477.703 512,255.999   "
   id="polygon3836"
   style="fill:#ffffff" />
	</g>
</g>
<g
   id="g3846"
   style="fill:#ffffff">
	<g
   id="g3844"
   style="fill:#ffffff">
		<polygon
   points="179.963,387.701 51.962,165.998 0,255.999 128,477.703 245.434,477.703 297.396,387.701   "
   id="polygon3842"
   style="fill:#ffffff" />
	</g>
</g>
<g
   id="g3848">
</g>
<g
   id="g3850">
</g>
<g
   id="g3852">
</g>
<g
   id="g3854">
</g>
<g
   id="g3856">
</g>
<g
   id="g3858">
</g>
<g
   id="g3860">
</g>
<g
   id="g3862">
</g>
<g
   id="g3864">
</g>
<g
   id="g3866">
</g>
<g
   id="g3868">
</g>
<g
   id="g3870">
</g>
<g
   id="g3872">
</g>
<g
   id="g3874">
</g>
<g
   id="g3876">
</g>
</svg>