<svg xmlns="http://www.w3.org/2000/svg" viewBox="0 0 247.76 129.35"><defs><style>.cls-1{fill:#1e1e1c;}.cls-2,.cls-5{fill:#0080b5;}.cls-2,.cls-3,.cls-4{fill-rule:evenodd;}.cls-3{fill:#70706f;}.cls-4,.cls-6{fill:#fff;}.cls-7{fill:#010101;}</style></defs><title>Asset 9</title><g id="Layer_2" data-name="Layer 2"><g id="Layer_1-2" data-name="Layer 1"><path class="cls-1" d="M81,26.26V60.34H75.79V26.26H64.74V21.87h27.4v4.39Z"/><path class="cls-1" d="M111.4,45.86H92.88c-.22,7.58,2.91,10.83,9,10.83a20.06,20.06,0,0,0,8.26-1.77l.46,4.16A25,25,0,0,1,101,60.85c-8.72,0-13.4-4.56-13.4-14.53,0-8.49,4.62-14.82,12.66-14.82s11.34,5.42,11.34,11.91A20,20,0,0,1,111.4,45.86ZM100,35.27c-3.71,0-6.33,2.79-6.9,6.95h13.22C106.45,38.06,104,35.27,100,35.27Z"/><path class="cls-1" d="M116,60.28V9.8h5.12V60.28Z"/><path class="cls-1" d="M149.54,45.86H131c-.23,7.58,2.91,10.83,8.95,10.83a20.1,20.1,0,0,0,8.26-1.77l.45,4.16a24.93,24.93,0,0,1-9.57,1.77c-8.72,0-13.39-4.56-13.39-14.53,0-8.49,4.62-14.82,12.65-14.82s11.34,5.42,11.34,11.91A21.94,21.94,0,0,1,149.54,45.86Zm-11.4-10.59c-3.7,0-6.32,2.79-6.89,6.95h13.22C144.58,38.06,142.13,35.27,138.14,35.27Z"/><path class="cls-1" d="M165,60.74c-6.78,0-12.43-3.19-12.43-13.62,0-9.12,4.68-15.56,14.14-15.56a23.8,23.8,0,0,1,6.44.91l-.57,4.5a17.2,17.2,0,0,0-6.1-1.19c-5.7,0-8.49,4.21-8.49,10.65,0,5.53,1.82,9.92,8.09,9.92a15,15,0,0,0,6.72-1.54l.4,4.45A23.49,23.49,0,0,1,165,60.74Z"/><path class="cls-1" d="M186.61,60.85c-7.69,0-12.7-4.44-12.7-14.42,0-8.32,5.24-14.93,13.79-14.93,7.23,0,12.76,4,12.76,14.19C200.46,54.24,195,60.85,186.61,60.85Zm.63-25.07c-4.1,0-8,3.13-8,10.14,0,6.84,2.79,10.6,8,10.6,4.22,0,7.87-3.3,7.87-10.54C195.11,39.54,192.48,35.78,187.24,35.78Z"/><path class="cls-1" d="M239.29,60.34V42.16c0-3.93-.91-6.44-4.61-6.44-4.05,0-7.92,4.27-7.92,11.11V60.34h-5.07V42.1c0-3.53-.74-6.38-4.62-6.38-4.33,0-7.92,4.62-7.92,11.11V60.34H204V32h5a35.21,35.21,0,0,1-.46,5.92l.12.06a10.39,10.39,0,0,1,9.85-6.55c6,0,7.58,4.16,7.81,6.44A10.53,10.53,0,0,1,236,31.45c5.36,0,8.43,2.9,8.43,9.29v19.6Z"/><path class="cls-1" d="M132.3,23.36h-3L124.58,9.83h2.85l2.63,7.92c.26.76.56,1.66.8,2.64h0a25,25,0,0,1,.8-2.8l2.67-7.76H137Z"/><path class="cls-1" d="M140.88,23.56c-2.82,0-4.65-1.46-4.65-5a5,5,0,0,1,5.09-5.35c2.83,0,4.66,1.56,4.66,5A5,5,0,0,1,140.88,23.56Zm.26-8.2c-1.14,0-2.26.88-2.26,2.93s.74,3.09,2.22,3.09c1.27,0,2.23-1,2.23-3.05S142.65,15.36,141.14,15.36Z"/><path class="cls-1" d="M147.74,23.36V8.72h2.57V23.36Z"/><path class="cls-1" d="M158.43,23.36l-3.09-4.93v4.93h-2.57V8.72h2.57v8.83l2.91-4.15h3.12L157.89,18l3.74,5.41Z"/><path class="cls-1" d="M170.62,18.79h-6.18a2.42,2.42,0,0,0,2.75,2.77,7,7,0,0,0,2.91-.63l.24,2a10,10,0,0,1-3.57.64c-3.17,0-4.94-1.58-4.94-5.09,0-3,1.69-5.29,4.68-5.29s4.19,2,4.19,4.45A8.28,8.28,0,0,1,170.62,18.79Zm-4.19-3.73a2,2,0,0,0-2,2h3.67A1.69,1.69,0,0,0,166.43,15.06Z"/><path class="cls-1" d="M177.87,15.7q-2.76-.57-2.76,3.59v4.07h-2.57v-10H175a13.17,13.17,0,0,1-.18,2h0A3,3,0,0,1,178,13.18Z"/><path class="cls-1" d="M193.11,23.36H189.9l-2-7.46a22.86,22.86,0,0,1-.52-2.78h0a17.62,17.62,0,0,1-.5,2.72l-2,7.52h-3L178.46,9.83h2.78l1.85,7.48a23.71,23.71,0,0,1,.5,2.74h0a23.16,23.16,0,0,1,.52-2.66l2.07-7.56H189l2.09,7.52a20.06,20.06,0,0,1,.54,2.62h0c.14-.94.3-1.78.5-2.58L194,9.83h2.6Z"/><path class="cls-1" d="M205.42,18.79h-6.17A2.42,2.42,0,0,0,202,21.56a7,7,0,0,0,2.91-.63l.24,2a9.89,9.89,0,0,1-3.57.64c-3.17,0-4.93-1.58-4.93-5.09,0-3,1.68-5.29,4.67-5.29s4.19,2,4.19,4.45A8.28,8.28,0,0,1,205.42,18.79Zm-4.19-3.73a2,2,0,0,0-1.94,2H203A1.7,1.7,0,0,0,201.23,15.06Z"/><path class="cls-1" d="M209.07,23.56a13.65,13.65,0,0,1-2.08-.18l.06-2.1a8.77,8.77,0,0,0,2.14.3c1,0,1.63-.4,1.63-1.07,0-1.76-4-.76-4-4.15,0-1.74,1.42-3.18,4.23-3.18a11.45,11.45,0,0,1,1.82.18l-.08,2a6.93,6.93,0,0,0-1.84-.26c-1,0-1.49.4-1.49,1,0,1.63,4.09.91,4.09,4.13C213.52,22.24,211.8,23.56,209.07,23.56Z"/><path class="cls-1" d="M217.13,23.56a13.65,13.65,0,0,1-2.08-.18l.06-2.1a8.77,8.77,0,0,0,2.14.3c1,0,1.62-.4,1.62-1.07,0-1.76-4-.76-4-4.15,0-1.74,1.43-3.18,4.24-3.18a11.45,11.45,0,0,1,1.82.18l-.08,2a6.93,6.93,0,0,0-1.84-.26c-1,0-1.49.4-1.49,1,0,1.63,4.09.91,4.09,4.13C221.58,22.24,219.86,23.56,217.13,23.56Z"/><path class="cls-1" d="M231.55,18.79h-6.18a2.42,2.42,0,0,0,2.75,2.77,7,7,0,0,0,2.91-.63l.24,2a10,10,0,0,1-3.57.64c-3.17,0-4.94-1.58-4.94-5.09,0-3,1.69-5.29,4.68-5.29s4.19,2,4.19,4.45A8.28,8.28,0,0,1,231.55,18.79Zm-4.19-3.73a2,2,0,0,0-2,2h3.67A1.69,1.69,0,0,0,227.36,15.06Z"/><path class="cls-1" d="M233.47,23.36V8.72H236V23.36Z"/><path class="cls-1" d="M240.23,23.56a13.78,13.78,0,0,1-2.09-.18l.06-2.1a8.85,8.85,0,0,0,2.15.3c1,0,1.62-.4,1.62-1.07,0-1.76-4-.76-4-4.15,0-1.74,1.43-3.18,4.23-3.18a11.57,11.57,0,0,1,1.83.18l-.08,2a7,7,0,0,0-1.85-.26c-1,0-1.48.4-1.48,1,0,1.63,4.09.91,4.09,4.13C244.68,22.24,243,23.56,240.23,23.56Z"/><path class="cls-2" d="M10.63,45.33c2,8.44,9.07,19.42,31.47,23.81a85.85,85.85,0,0,0,41.78-2.45A88.8,88.8,0,0,1,43,67.46c-11.93-2.72-25.32-9.37-28.52-23-2.81-12,10.25-25.62,25.9-31.84s45.61-12.64,70.1,4.28C100.18,7.29,69.72-1.51,39.76,10.28S9.09,39,10.63,45.33Z"/><path class="cls-3" d="M29.68,55c3.63-4.37,12.91-2.65,20.74,3.86S61.65,74.16,58,78.53s-13.37,2.47-21.2-4S26.05,59.36,29.68,55Z"/><path class="cls-4" d="M38.77,41.89c-3.69,1.39-5.71,6.55-5.48,10.59s1,7.73,4.3,13.61c3.23,5.7,7.45,9.33,11.2,11a9.84,9.84,0,0,0,9.6-.42c1.9-1.3,3.93-5.32,3.92-9A29.74,29.74,0,0,0,59,54.82c-1.76-3.61-6-8.87-9.41-11S42.35,40.54,38.77,41.89Z"/><path class="cls-2" d="M40.28,43.39c-3.34,1.26-5.17,5.94-5,9.61s.87,7,3.89,12.34c2.93,5.17,6.76,8.47,10.17,10a8.92,8.92,0,0,0,8.7-.37c1.72-1.19,3.56-4.83,3.56-8.18a27,27,0,0,0-3-11.66c-1.6-3.28-5.48-8-8.54-9.95S43.53,42.17,40.28,43.39Z"/><path class="cls-3" d="M18,31c-1.11-.74-1.41-1.59-3.3-1S2.4,33.11.84,33.62c-1,.34-1.06.58-.33,1.8s4.74,8.68,5.15,9.63,1,1.35,3.19.74S28,40.67,29,40.46s1.23-1,.16-1.65S19.11,31.77,18,31Z"/><path class="cls-4" d="M25.94,19.73c-.17-.26-.33-1.11-1.43-.77-1.25.37-16.13,3.39-16.13,3.39s.21.87-.65.88c-1.47,0-1.3,14.83,2.47,17.66.33.25.2.91,1.26.67,1.41-.33,24.41-5.09,24.41-5.09s.91-.19.17-1.19C35.56,34.62,26.11,20,25.94,19.73Z"/><path class="cls-2" d="M25.62,20.17c-.15-.24-.3-1-1.3-.7S9.69,22.55,9.69,22.55a.62.62,0,0,0-.59.79c.13,1,2.19,15.63,2.24,16s.18.83,1.15.6c1.28-.29,22.13-4.62,22.13-4.62s.83-.16.16-1.07C34.35,33.67,25.77,20.41,25.62,20.17Z"/><path class="cls-3" d="M50.3,15.32c-1.16-.43-12.39-4.16-13.06-4.4s-2.2,0-1.65,1.25,6.08,14.19,6.47,15,1.25,1.38,2.36-.34,6-9.17,6.47-9.92S51.46,15.74,50.3,15.32Z"/><path class="cls-4" d="M48.45,3.54s.17-1.12-1.06-.88S29.61,6.25,29.21,6.35s-1.52.79-.5,1.68S44,20.84,44.47,21.21s1.7.7,1.85-.73S48.45,3.54,48.45,3.54Z"/><path class="cls-2" d="M47.59,3.55s.16-1-1-.8S30.51,6,30.15,6.1s-1.38.72-.45,1.53S43.58,19.25,44,19.58s1.54.63,1.68-.66S47.59,3.55,47.59,3.55Z"/><path class="cls-3" d="M64.32,5.47c-1.62-.21-1.7-.43-2.5.64a33.71,33.71,0,0,0-2.19,3.32c-.27.54-.23.68.91,1.7S64.09,14.51,64.7,15a3.27,3.27,0,0,0,2.51.37c1.11-.12,3.91-.34,4.66-.42s.9-.37,1.09-1.39.39-2.31.43-2.77-.18-.85-1-1.53-2.5-2.24-3-2.71a2.83,2.83,0,0,0-2-.76A23.63,23.63,0,0,1,64.32,5.47Z"/><path class="cls-4" d="M74,3.46c0-.21,0-.4-.44-.64L69.05.24A1.29,1.29,0,0,0,68.12,0l-6,1.66c-.14,0-.51,0-.71.77S59.82,7.82,59.75,8.1s-.32.69.29,1l6.51,3.79a1,1,0,0,0,1,.09l6.32-3.63a.59.59,0,0,0,.37-.68C74.26,8,74,3.67,74,3.46Z"/><path class="cls-2" d="M73.34,3.27c0-.19,0-.36-.39-.58L68.84.35A1.16,1.16,0,0,0,68,.15L62.52,1.66c-.12,0-.45,0-.64.7S60.46,7.22,60.4,7.48s-.29.62.27.94l5.9,3.44a.93.93,0,0,0,1,.08l5.74-3.29A.54.54,0,0,0,73.59,8C73.56,7.37,73.35,3.45,73.34,3.27Z"/><path class="cls-5" d="M247.76,118.41c0-6-5.72-10.94-12.77-10.94a15,15,0,0,0-3.65.45c-2-5.44-7.29-9.64-13.85-11-1.12-15.84-15.34-28.38-32.74-28.38-14.19,0-26.27,8.34-30.85,20a20.61,20.61,0,1,0-4.28,40.76h85.67C242.2,129.2,247.76,124.37,247.76,118.41Z"/><path class="cls-6" d="M155.52,108.28a6.91,6.91,0,0,1-1.61,4.9,7,7,0,0,1-9.2,0,7,7,0,0,1-1.6-4.92,6.85,6.85,0,0,1,1.61-4.89,6.08,6.08,0,0,1,4.61-1.68,6,6,0,0,1,4.6,1.7A6.89,6.89,0,0,1,155.52,108.28Zm-9.51,0a5.25,5.25,0,0,0,.83,3.24,2.92,2.92,0,0,0,2.47,1.09q3.31,0,3.31-4.33T149.33,104a2.94,2.94,0,0,0-2.49,1.09A5.34,5.34,0,0,0,146,108.28Z"/><path class="cls-6" d="M169,108.18a6.24,6.24,0,0,1-1.84,4.85,7.54,7.54,0,0,1-5.28,1.68h-3.69V101.89h4.09a7,7,0,0,1,4.95,1.65A6.05,6.05,0,0,1,169,108.18Zm-2.87.07q0-4.14-3.71-4.14H161v8.36h1.18Q166.17,112.47,166.16,108.25Z"/><path class="cls-6" d="M182.4,114.71h-2.75v-5.53h-5.16v5.53h-2.76V101.89h2.76v5h5.16v-5h2.75Z"/><path class="cls-7" d="M24.75,104.72a4.14,4.14,0,0,1-1.35,3.33,5.88,5.88,0,0,1-3.87,1.15H18.31V114H15.45V100.52h4.3a5.68,5.68,0,0,1,3.73,1.06A3.83,3.83,0,0,1,24.75,104.72Zm-6.44,2.14h.94a3.19,3.19,0,0,0,2-.52,2.18,2.18,0,0,0,.1-3,2.55,2.55,0,0,0-1.71-.48h-1.3Z"/><path class="cls-7" d="M36.43,108.82a5.5,5.5,0,0,1-1.33,3.93,4.78,4.78,0,0,1-3.69,1.42,5.16,5.16,0,0,1-2.61-.65,4.21,4.21,0,0,1-1.74-1.87,6.18,6.18,0,0,1-.61-2.83,5.53,5.53,0,0,1,1.31-3.92,4.83,4.83,0,0,1,3.71-1.4,5.15,5.15,0,0,1,2.61.64A4.27,4.27,0,0,1,35.82,106,6.18,6.18,0,0,1,36.43,108.82Zm-7.12,0a4.35,4.35,0,0,0,.5,2.31,1.81,1.81,0,0,0,1.64.78,1.74,1.74,0,0,0,1.61-.78,4.33,4.33,0,0,0,.5-2.31,4.25,4.25,0,0,0-.5-2.29,2.11,2.11,0,0,0-3.25,0A4.27,4.27,0,0,0,29.31,108.82Z"/><path class="cls-7" d="M47.21,114l-.79-3.61-1.07-4.54h-.06L43.41,114h-3l-2.93-10.3h2.8l1.19,4.56c.19.81.38,1.94.58,3.38h0a20.57,20.57,0,0,1,.33-2.22l.14-.78,1.27-4.94h3.1l1.21,4.94c0,.13.06.33.11.59s.1.55.15.85.1.59.14.87.06.52.07.69h0c.06-.44.15-1,.29-1.82s.25-1.29.31-1.56l1.23-4.56h2.76l-3,10.3Z"/><path class="cls-7" d="M59.55,114.17a5.32,5.32,0,0,1-3.88-1.37,5.18,5.18,0,0,1-1.4-3.89,5.73,5.73,0,0,1,1.29-4,4.62,4.62,0,0,1,3.58-1.41,4.54,4.54,0,0,1,3.4,1.24,4.69,4.69,0,0,1,1.21,3.43v1.37H57.11a2.71,2.71,0,0,0,.71,1.87,2.48,2.48,0,0,0,1.86.67,8.26,8.26,0,0,0,1.76-.19,9.06,9.06,0,0,0,1.73-.62v2.17a6.35,6.35,0,0,1-1.57.55A9.93,9.93,0,0,1,59.55,114.17Zm-.39-8.68a1.77,1.77,0,0,0-1.4.57,2.61,2.61,0,0,0-.58,1.61h3.94a2.33,2.33,0,0,0-.54-1.61A1.85,1.85,0,0,0,59.16,105.49Z"/><path class="cls-7" d="M71.78,103.5a4.26,4.26,0,0,1,1,.08l-.21,2.63a3.29,3.29,0,0,0-.83-.09,3,3,0,0,0-2.09.69,2.5,2.5,0,0,0-.75,1.93V114H66v-10.3h2.12l.42,1.73h.14A3.83,3.83,0,0,1,70,104,3.12,3.12,0,0,1,71.78,103.5Z"/><path class="cls-7" d="M79.26,114.17a5.35,5.35,0,0,1-3.89-1.37,5.22,5.22,0,0,1-1.4-3.89,5.73,5.73,0,0,1,1.3-4,4.6,4.6,0,0,1,3.58-1.41,4.52,4.52,0,0,1,3.39,1.24,4.7,4.7,0,0,1,1.22,3.43v1.37H76.82a2.71,2.71,0,0,0,.71,1.87,2.48,2.48,0,0,0,1.86.67,8.26,8.26,0,0,0,1.76-.19,9.06,9.06,0,0,0,1.73-.62v2.17a6.43,6.43,0,0,1-1.58.55A9.83,9.83,0,0,1,79.26,114.17Zm-.4-8.68a1.79,1.79,0,0,0-1.4.57,2.67,2.67,0,0,0-.58,1.61h4a2.38,2.38,0,0,0-.55-1.61A1.83,1.83,0,0,0,78.86,105.49Z"/><path class="cls-7" d="M89,114.17a3.34,3.34,0,0,1-2.85-1.41,7.93,7.93,0,0,1,0-7.85,3.42,3.42,0,0,1,2.91-1.41A3.35,3.35,0,0,1,92,105h.09a11.68,11.68,0,0,1-.21-2.06V99.66h2.82V114H92.59L92,112.65h-.12A3.22,3.22,0,0,1,89,114.17Zm1-2.24a1.93,1.93,0,0,0,1.58-.62,3.77,3.77,0,0,0,.55-2.13v-.31a4.12,4.12,0,0,0-.52-2.37,1.89,1.89,0,0,0-1.66-.72,1.67,1.67,0,0,0-1.46.8,4.29,4.29,0,0,0-.52,2.31,4,4,0,0,0,.53,2.28A1.71,1.71,0,0,0,90,111.93Z"/><path class="cls-7" d="M108.3,103.5a3.33,3.33,0,0,1,2.86,1.42,6.52,6.52,0,0,1,1,3.9,6.4,6.4,0,0,1-1.06,4,3.46,3.46,0,0,1-2.9,1.4,3.39,3.39,0,0,1-2.84-1.32h-.2l-.47,1.14h-2.14V99.66h2.81V103q0,.63-.12,2h.12A3.24,3.24,0,0,1,108.3,103.5Zm-.9,2.24a1.8,1.8,0,0,0-1.52.64,3.67,3.67,0,0,0-.49,2.12v.3a4.33,4.33,0,0,0,.49,2.38,1.78,1.78,0,0,0,1.56.71,1.56,1.56,0,0,0,1.38-.79,4.34,4.34,0,0,0,.51-2.32,4,4,0,0,0-.52-2.28A1.62,1.62,0,0,0,107.4,105.74Z"/><path class="cls-7" d="M113,103.69h3.07l2,5.79a8.38,8.38,0,0,1,.34,1.79h0a7.91,7.91,0,0,1,.4-1.79l1.9-5.79h3l-4.36,11.61a5,5,0,0,1-1.71,2.41,4.27,4.27,0,0,1-2.59.81,6.89,6.89,0,0,1-1.43-.16v-2.23a4.84,4.84,0,0,0,1.11.12,2,2,0,0,0,1.3-.46,3,3,0,0,0,.87-1.37l.17-.51Z"/></g></g></svg>