<svg xmlns="http://www.w3.org/2000/svg" viewBox="0 0 247.76 129.24"><defs><style>.cls-1,.cls-2{fill:#fff;}.cls-2,.cls-4{fill-rule:evenodd;}.cls-3{fill:none;}.cls-4,.cls-5{fill:#70706f;}</style></defs><title>Asset 10</title><g id="Layer_2" data-name="Layer 2"><g id="Layer_1-2" data-name="Layer 1"><path class="cls-1" d="M81,26.15V60.23H75.79V26.15H64.74V21.76h27.4v4.39Z"/><path class="cls-1" d="M111.4,45.75H92.88c-.22,7.58,2.91,10.83,9,10.83a20.22,20.22,0,0,0,8.26-1.77l.46,4.16A25.16,25.16,0,0,1,101,60.74c-8.72,0-13.4-4.56-13.4-14.53,0-8.49,4.62-14.82,12.66-14.82s11.34,5.41,11.34,11.91A20.29,20.29,0,0,1,111.4,45.75ZM100,35.15c-3.71,0-6.33,2.79-6.9,7h13.22C106.45,37.94,104,35.15,100,35.15Z"/><path class="cls-1" d="M116,60.16V9.69h5.12V60.16Z"/><path class="cls-1" d="M149.54,45.75H131c-.23,7.58,2.91,10.83,8.95,10.83a20.26,20.26,0,0,0,8.26-1.77l.45,4.16a25.12,25.12,0,0,1-9.57,1.77c-8.72,0-13.39-4.56-13.39-14.53,0-8.49,4.62-14.82,12.65-14.82s11.34,5.41,11.34,11.91A22.26,22.26,0,0,1,149.54,45.75Zm-11.4-10.6c-3.7,0-6.32,2.79-6.89,7h13.22C144.58,37.94,142.13,35.15,138.14,35.15Z"/><path class="cls-1" d="M165,60.62c-6.78,0-12.43-3.19-12.43-13.62,0-9.11,4.68-15.55,14.14-15.55a23.8,23.8,0,0,1,6.44.91l-.57,4.5a17.2,17.2,0,0,0-6.1-1.2c-5.7,0-8.49,4.22-8.49,10.66,0,5.53,1.82,9.92,8.09,9.92a15,15,0,0,0,6.72-1.54l.4,4.44A23.49,23.49,0,0,1,165,60.62Z"/><path class="cls-1" d="M186.61,60.74c-7.69,0-12.7-4.45-12.7-14.42,0-8.32,5.24-14.93,13.79-14.93,7.23,0,12.76,4,12.76,14.19C200.46,54.13,195,60.74,186.61,60.74Zm.63-25.08c-4.1,0-8,3.14-8,10.15,0,6.84,2.79,10.6,8,10.6,4.22,0,7.87-3.31,7.87-10.54C195.11,39.43,192.48,35.66,187.24,35.66Z"/><path class="cls-1" d="M239.29,60.23V42.05c0-3.93-.91-6.44-4.61-6.44-4.05,0-7.92,4.27-7.92,11.11V60.23h-5.07V42c0-3.53-.74-6.38-4.62-6.38-4.33,0-7.92,4.61-7.92,11.11V60.23H204V31.9h5a35.25,35.25,0,0,1-.46,5.93l.12.06a10.4,10.4,0,0,1,9.85-6.56c6,0,7.58,4.16,7.81,6.44A10.55,10.55,0,0,1,236,31.33c5.36,0,8.43,2.91,8.43,9.29V60.23Z"/><path class="cls-1" d="M132.3,23.25h-3L124.58,9.71h2.85l2.63,7.92c.26.77.56,1.67.8,2.65h0a25.73,25.73,0,0,1,.8-2.81l2.67-7.76H137Z"/><path class="cls-1" d="M140.88,23.45c-2.82,0-4.65-1.47-4.65-5a5,5,0,0,1,5.09-5.36c2.83,0,4.66,1.57,4.66,5A5,5,0,0,1,140.88,23.45Zm.26-8.2c-1.14,0-2.26.88-2.26,2.93s.74,3.08,2.22,3.08c1.27,0,2.23-1,2.23-3S142.65,15.25,141.14,15.25Z"/><path class="cls-1" d="M147.74,23.25V8.61h2.57V23.25Z"/><path class="cls-1" d="M158.43,23.25l-3.09-4.93v4.93h-2.57V8.61h2.57v8.82l2.91-4.15h3.12l-3.48,4.55,3.74,5.42Z"/><path class="cls-1" d="M170.62,18.68h-6.18c0,1.86.9,2.76,2.75,2.76a7.2,7.2,0,0,0,2.91-.62l.24,2a10,10,0,0,1-3.57.64c-3.17,0-4.94-1.59-4.94-5.09,0-3,1.69-5.3,4.68-5.3s4.19,2,4.19,4.45A8.41,8.41,0,0,1,170.62,18.68ZM166.43,15a2,2,0,0,0-2,2h3.67A1.69,1.69,0,0,0,166.43,15Z"/><path class="cls-1" d="M177.87,15.59q-2.76-.57-2.76,3.59v4.07h-2.57v-10H175a13.29,13.29,0,0,1-.18,2h0A3,3,0,0,1,178,13.06Z"/><path class="cls-1" d="M193.11,23.25H189.9l-2-7.46a23,23,0,0,1-.52-2.79h0a17.75,17.75,0,0,1-.5,2.73l-2,7.52h-3L178.46,9.71h2.78l1.85,7.48a24.28,24.28,0,0,1,.5,2.75h0a23.76,23.76,0,0,1,.52-2.67l2.07-7.56H189l2.09,7.52a20.59,20.59,0,0,1,.54,2.63h0c.14-.94.3-1.78.5-2.59L194,9.71h2.6Z"/><path class="cls-1" d="M205.42,18.68h-6.17A2.41,2.41,0,0,0,202,21.44a7.13,7.13,0,0,0,2.91-.62l.24,2a9.89,9.89,0,0,1-3.57.64c-3.17,0-4.93-1.59-4.93-5.09,0-3,1.68-5.3,4.67-5.3s4.19,2,4.19,4.45A8.41,8.41,0,0,1,205.42,18.68ZM201.23,15a2,2,0,0,0-1.94,2H203A1.7,1.7,0,0,0,201.23,15Z"/><path class="cls-1" d="M209.07,23.45a13.65,13.65,0,0,1-2.08-.18l.06-2.11a8.77,8.77,0,0,0,2.14.3c1,0,1.63-.4,1.63-1.06,0-1.76-4-.76-4-4.15,0-1.74,1.42-3.19,4.23-3.19a11.45,11.45,0,0,1,1.82.18l-.08,2a6.93,6.93,0,0,0-1.84-.26c-1,0-1.49.4-1.49,1,0,1.62,4.09.9,4.09,4.13C213.52,22.12,211.8,23.45,209.07,23.45Z"/><path class="cls-1" d="M217.13,23.45a13.65,13.65,0,0,1-2.08-.18l.06-2.11a8.77,8.77,0,0,0,2.14.3c1,0,1.62-.4,1.62-1.06,0-1.76-4-.76-4-4.15,0-1.74,1.43-3.19,4.24-3.19a11.45,11.45,0,0,1,1.82.18l-.08,2A6.93,6.93,0,0,0,219,15c-1,0-1.49.4-1.49,1,0,1.62,4.09.9,4.09,4.13C221.58,22.12,219.86,23.45,217.13,23.45Z"/><path class="cls-1" d="M231.55,18.68h-6.18c0,1.86.9,2.76,2.75,2.76a7.2,7.2,0,0,0,2.91-.62l.24,2a10,10,0,0,1-3.57.64c-3.17,0-4.94-1.59-4.94-5.09,0-3,1.69-5.3,4.68-5.3s4.19,2,4.19,4.45A8.41,8.41,0,0,1,231.55,18.68ZM227.36,15a2,2,0,0,0-2,2h3.67A1.69,1.69,0,0,0,227.36,15Z"/><path class="cls-1" d="M233.47,23.25V8.61H236V23.25Z"/><path class="cls-1" d="M240.23,23.45a13.78,13.78,0,0,1-2.09-.18l.06-2.11a8.85,8.85,0,0,0,2.15.3c1,0,1.62-.4,1.62-1.06,0-1.76-4-.76-4-4.15,0-1.74,1.43-3.19,4.23-3.19a11.57,11.57,0,0,1,1.83.18l-.08,2a7,7,0,0,0-1.85-.26c-1,0-1.48.4-1.48,1,0,1.62,4.09.9,4.09,4.13C244.68,22.12,243,23.45,240.23,23.45Z"/><path class="cls-2" d="M40.28,43.28c-3.34,1.26-5.17,5.94-5,9.61s.87,7,3.89,12.34c2.93,5.16,6.76,8.46,10.17,10a8.92,8.92,0,0,0,8.7-.37c1.72-1.19,3.56-4.84,3.56-8.18A27,27,0,0,0,58.6,55c-1.6-3.28-5.48-8-8.54-10S43.53,42.06,40.28,43.28Z"/><path class="cls-2" d="M25.62,20.05c-.15-.24-.3-1-1.3-.7S9.69,22.43,9.69,22.43a.63.63,0,0,0-.59.8c.13.95,2.19,15.63,2.24,16s.18.84,1.15.61c1.28-.3,22.13-4.62,22.13-4.62s.83-.16.16-1.07C34.35,33.56,25.77,20.3,25.62,20.05Z"/><path class="cls-2" d="M47.59,3.44s.16-1-1-.8S30.51,5.9,30.15,6s-1.38.72-.45,1.53S43.58,19.13,44,19.47s1.54.63,1.68-.66S47.59,3.44,47.59,3.44Z"/><path class="cls-2" d="M73.34,3.15c0-.18,0-.35-.39-.58L68.84.24A1.16,1.16,0,0,0,68,0L62.52,1.55c-.12,0-.45,0-.64.7S60.46,7.1,60.4,7.36s-.29.63.27,1l5.9,3.43a.9.9,0,0,0,1,.08c.6-.33,5.51-3.15,5.74-3.29s.35-.21.33-.62C73.56,7.26,73.35,3.34,73.34,3.15Z"/><path class="cls-1" d="M162.45,104H161v8.35h1.18c2.67,0,4-1.4,4-4.22S164.92,104,162.45,104Z"/><path class="cls-1" d="M149.33,103.84a2.94,2.94,0,0,0-2.49,1.09,5.34,5.34,0,0,0-.83,3.24,5.27,5.27,0,0,0,.83,3.24,2.91,2.91,0,0,0,2.47,1.08q3.31,0,3.31-4.32T149.33,103.84Z"/><path class="cls-1" d="M235,107.35a15,15,0,0,0-3.65.46c-2-5.44-7.29-9.64-13.85-11C216.37,81,202.15,68.47,184.75,68.47c-14.19,0-26.27,8.34-30.85,20a20.12,20.12,0,0,0-4.28-.45,20.61,20.61,0,1,0,0,41.21h85.67c6.91-.14,12.47-5,12.47-10.93S242,107.35,235,107.35Zm-81.08,5.71a7,7,0,0,1-9.2,0,6.94,6.94,0,0,1-1.6-4.91,6.85,6.85,0,0,1,1.61-4.89,7.1,7.1,0,0,1,9.21,0,8.29,8.29,0,0,1,0,9.79Zm13.28-.14a7.54,7.54,0,0,1-5.28,1.68h-3.69V101.77h4.09a7,7,0,0,1,4.95,1.66,6,6,0,0,1,1.77,4.63A6.25,6.25,0,0,1,167.19,112.92Zm15.21,1.68h-2.75v-5.54h-5.16v5.54h-2.76V101.77h2.76v5h5.16v-5h2.75Z"/><path class="cls-1" d="M24.75,104.61a4.08,4.08,0,0,1-1.36,3.32,5.78,5.78,0,0,1-3.86,1.15H18.31v4.79H15.45V100.41h4.3a5.74,5.74,0,0,1,3.73,1A3.85,3.85,0,0,1,24.75,104.61Zm-6.44,2.13h.94a3.13,3.13,0,0,0,2-.52,1.82,1.82,0,0,0,.65-1.51,1.85,1.85,0,0,0-.55-1.48,2.55,2.55,0,0,0-1.71-.48h-1.3Z"/><path class="cls-1" d="M36.43,108.71a5.52,5.52,0,0,1-1.33,3.93,4.81,4.81,0,0,1-3.69,1.42,5.16,5.16,0,0,1-2.61-.65,4.31,4.31,0,0,1-1.74-1.87,6.18,6.18,0,0,1-.61-2.83,5.55,5.55,0,0,1,1.31-3.93,4.87,4.87,0,0,1,3.71-1.4,5.16,5.16,0,0,1,2.61.65,4.21,4.21,0,0,1,1.74,1.85A6.15,6.15,0,0,1,36.43,108.71Zm-7.12,0a4.38,4.38,0,0,0,.5,2.31,1.81,1.81,0,0,0,1.64.78,1.74,1.74,0,0,0,1.61-.78,4.35,4.35,0,0,0,.5-2.31,4.29,4.29,0,0,0-.5-2.3,1.79,1.79,0,0,0-1.63-.76,1.78,1.78,0,0,0-1.62.76A4.27,4.27,0,0,0,29.31,108.71Z"/><path class="cls-1" d="M47.21,113.87l-.79-3.6-1.07-4.55h-.06l-1.88,8.15h-3l-2.93-10.29h2.8l1.19,4.55c.19.82.38,2,.58,3.38h0a20.84,20.84,0,0,1,.33-2.21l.14-.79,1.27-4.93h3.1l1.21,4.93c0,.14.06.34.11.6s.1.55.15.84.1.59.14.88.06.51.07.68h0c.06-.44.15-1,.29-1.81s.25-1.29.31-1.57l1.23-4.55h2.76l-3,10.29Z"/><path class="cls-1" d="M59.55,114.06a5.29,5.29,0,0,1-3.88-1.38,5.16,5.16,0,0,1-1.4-3.88,5.71,5.71,0,0,1,1.29-4,5.24,5.24,0,0,1,7-.17,4.69,4.69,0,0,1,1.21,3.43v1.36H57.11a2.69,2.69,0,0,0,.71,1.87,2.49,2.49,0,0,0,1.86.68,7.65,7.65,0,0,0,1.76-.2,9,9,0,0,0,1.73-.61v2.17a6.79,6.79,0,0,1-1.57.55A9.93,9.93,0,0,1,59.55,114.06Zm-.39-8.68a1.77,1.77,0,0,0-1.4.57,2.61,2.61,0,0,0-.58,1.6h3.94a2.32,2.32,0,0,0-.54-1.6A1.85,1.85,0,0,0,59.16,105.38Z"/><path class="cls-1" d="M71.78,103.38a4.19,4.19,0,0,1,1,.09l-.21,2.63a3.29,3.29,0,0,0-.83-.09,3,3,0,0,0-2.09.69,2.49,2.49,0,0,0-.75,1.93v5.24H66V103.58h2.12l.42,1.73h.14a3.94,3.94,0,0,1,1.29-1.4A3.19,3.19,0,0,1,71.78,103.38Z"/><path class="cls-1" d="M79.26,114.06a5.31,5.31,0,0,1-3.89-1.38A5.2,5.2,0,0,1,74,108.8a5.71,5.71,0,0,1,1.3-4,4.58,4.58,0,0,1,3.58-1.42,4.52,4.52,0,0,1,3.39,1.25,4.7,4.7,0,0,1,1.22,3.43v1.36H76.82a2.69,2.69,0,0,0,.71,1.87,2.49,2.49,0,0,0,1.86.68,7.65,7.65,0,0,0,1.76-.2,9,9,0,0,0,1.73-.61v2.17a6.87,6.87,0,0,1-1.58.55A9.83,9.83,0,0,1,79.26,114.06Zm-.4-8.68a1.79,1.79,0,0,0-1.4.57,2.67,2.67,0,0,0-.58,1.6h4a2.37,2.37,0,0,0-.55-1.6A1.83,1.83,0,0,0,78.86,105.38Z"/><path class="cls-1" d="M89,114.06a3.34,3.34,0,0,1-2.85-1.41,7.93,7.93,0,0,1,0-7.85,3.41,3.41,0,0,1,2.91-1.42,3.37,3.37,0,0,1,3,1.51h.09a11.49,11.49,0,0,1-.21-2v-3.3h2.82v14.33H92.59L92,112.54h-.12A3.22,3.22,0,0,1,89,114.06Zm1-2.24a1.9,1.9,0,0,0,1.58-.63,3.73,3.73,0,0,0,.55-2.12v-.31a4.09,4.09,0,0,0-.52-2.37,1.89,1.89,0,0,0-1.66-.72,1.66,1.66,0,0,0-1.46.79,4.36,4.36,0,0,0-.52,2.32,4,4,0,0,0,.53,2.28A1.71,1.71,0,0,0,90,111.82Z"/><path class="cls-1" d="M108.3,103.38a3.34,3.34,0,0,1,2.86,1.43,6.5,6.5,0,0,1,1,3.9,6.42,6.42,0,0,1-1.06,4,3.46,3.46,0,0,1-2.9,1.4,3.39,3.39,0,0,1-2.84-1.32h-.2l-.47,1.13h-2.14V99.54h2.81v3.34c0,.42,0,1.1-.12,2h.12A3.24,3.24,0,0,1,108.3,103.38Zm-.9,2.25a1.77,1.77,0,0,0-1.52.64,3.66,3.66,0,0,0-.49,2.11v.31a4.3,4.3,0,0,0,.49,2.37,1.76,1.76,0,0,0,1.56.72,1.56,1.56,0,0,0,1.38-.79,4.36,4.36,0,0,0,.51-2.32,4,4,0,0,0-.52-2.28A1.6,1.6,0,0,0,107.4,105.63Z"/><path class="cls-1" d="M113,103.58h3.07l2,5.79a8.26,8.26,0,0,1,.34,1.79h0a7.79,7.79,0,0,1,.4-1.79l1.9-5.79h3l-4.36,11.61a5,5,0,0,1-1.71,2.41,4.26,4.26,0,0,1-2.59.8,6.81,6.81,0,0,1-1.43-.15V116a4.84,4.84,0,0,0,1.11.12,2,2,0,0,0,1.3-.46,2.94,2.94,0,0,0,.87-1.38l.17-.5Z"/><path class="cls-2" d="M10.4,38.13c0-.27.09-.55.14-.83C10.49,37.58,10.44,37.86,10.4,38.13Z"/><path class="cls-2" d="M10.26,39.25c0-.25.05-.51.09-.77C10.31,38.74,10.29,39,10.26,39.25Z"/><path class="cls-2" d="M10.6,37l.21-.92Z"/><path class="cls-2" d="M10.18,40.5c0-.3,0-.6.05-.9C10.21,39.9,10.19,40.2,10.18,40.5Z"/><path class="cls-2" d="M12.49,39.84c.18-.05.77-.17,1.63-.36v0c1-10.66,12.62-21.64,26.21-27C56,6.23,85.94-.18,110.43,16.75,100.18,7.18,69.72-1.62,39.76,10.17,19.86,18,12.87,28.09,10.86,35.84c.27,1.9.46,3.28.48,3.39C11.39,39.61,11.52,40.06,12.49,39.84Z"/><path class="cls-2" d="M10.86,35.83c0,.07,0,.14,0,.21a1.46,1.46,0,0,0,0-.2Z"/><path class="cls-2" d="M10.18,40.62h0v0Z"/><path class="cls-2" d="M10.23,39.6l0-.35Z"/><path class="cls-2" d="M10.54,37.3,10.6,37Z"/><path class="cls-2" d="M14.12,39.51c0,.44-.07.88-.07,1.32C14.05,40.39,14.08,40,14.12,39.51Z"/><path class="cls-2" d="M10.35,38.48c0-.11,0-.23.05-.35C10.38,38.25,10.36,38.37,10.35,38.48Z"/><path class="cls-2" d="M25.62,20l.47.73a55,55,0,0,1,14.24-8.32C56,6.22,85.94-.19,110.43,16.74,100.18,7.17,69.72-1.64,39.76,10.16a68.4,68.4,0,0,0-17.53,9.66c1.07-.23,1.85-.41,2.09-.48C25.32,19,25.47,19.8,25.62,20Z"/><path class="cls-2" d="M61.28,69.36a11.4,11.4,0,0,0,.36-2.71A27,27,0,0,0,58.6,55c-1.6-3.28-5.48-8-8.54-10s-6.53-3-9.78-1.78-5.17,5.94-5,9.61.87,7,3.89,12.34c.28.49.57.94.86,1.39,1,.27,1.93.51,2.88.73A84,84,0,0,0,61.28,69.36Z"/><path class="cls-2" d="M83.88,66.57a86.24,86.24,0,0,1-22.6,2.79c-.1.37-.21.74-.33,1.1A82,82,0,0,0,83.88,66.57Z"/><path class="cls-2" d="M14.41,44.18a.5.5,0,0,1,0-.12c-1.47.39-2.76.86-3.76,1.13v0c1.61,6.6,6.26,14.76,18.94,20.1a8.81,8.81,0,0,0-1.17-3.48C21.79,58,16.3,52.26,14.41,44.18Z"/><path class="cls-2" d="M42.1,69,41.74,69a21.17,21.17,0,0,0,7.64,6.26,8.92,8.92,0,0,0,8.7-.38,9.27,9.27,0,0,0,2.86-4.36A83,83,0,0,1,42.1,69Z"/><path class="cls-2" d="M61,70.46h0a82.05,82.05,0,0,0,22.94-3.89A88.8,88.8,0,0,1,43,67.35c-1-.22-1.91-.46-2.87-.73.53.82,1.08,1.6,1.64,2.31l.38.08A83.74,83.74,0,0,0,61,70.46Z"/><path class="cls-3" d="M39.1,68.36c-.52-.76-1-1.55-1.51-2.4l-.06-.11c-10.29-3.37-20.38-9.92-23.1-21.54,0-.08,0-.16,0-.24l-3.79,1,0,.13c1.61,6.6,6.26,14.77,18.95,20.11v0A60.45,60.45,0,0,0,39.1,68.36Z"/><path class="cls-4" d="M29.14,38.68,28.07,38c-4.6.95-10.31,2.06-13.72,2.77v0c-1.38.3-2.65.54-2.91.58-1,.16-1.14-.35-1.26-.76v0c-.12-.85-.72-5.24-1.3-9.48-3.41.89-7.16,1.87-8,2.17-1,.35-1.06.59-.33,1.85S5.25,44,5.66,44.92s1,1.39,3.19.77l1.68-.47h0l.1,0h0c1-.28,2.52-.77,3.95-1.16,5.76-1.54,13.76-3.57,14.4-3.71C29.94,40.12,30.21,39.34,29.14,38.68Z"/><path class="cls-2" d="M22.23,19.82c-4.09.88-12.54,2.6-12.54,2.6a.62.62,0,0,0-.59.79c.09.67,1.13,8.11,1.76,12.62C12.1,31,15.26,25.33,22.23,19.82Z"/><path class="cls-2" d="M14.12,39.48c5.18-1.09,20.5-4.27,20.5-4.27s.83-.16.16-1.06c-.38-.53-6.87-10.57-8.69-13.38C19.41,26.2,14.74,32.9,14.12,39.48Z"/><path class="cls-5" d="M50.3,15.19c-.35-.13-1.6-.56-3.21-1.1-.38,3.06-.71,5.71-.77,6.26-.15,1.43-1.4,1.11-1.85.73l-7.8-6.51c1.78,4.16,5.09,11.86,5.39,12.5.39.83,1.25,1.38,2.36-.34s6-9.17,6.47-9.92S51.46,15.62,50.3,15.19Z"/><path class="cls-2" d="M47.59,3.43s.16-1-1-.8S30.51,5.88,30.15,6s-1.38.72-.45,1.53S43.58,19.12,44,19.46s1.54.62,1.68-.67S47.59,3.43,47.59,3.43Z"/><path class="cls-5" d="M66.55,12.8,60,9a.83.83,0,0,1-.17-.12l-.24.4c-.27.54-.23.68.91,1.71s3.55,3.37,4.16,3.86a3.27,3.27,0,0,0,2.51.37c1.11-.12,3.91-.34,4.66-.42s.9-.37,1.09-1.39.39-2.31.43-2.76a1.13,1.13,0,0,0-.35-.9L67.6,12.89A1,1,0,0,1,66.55,12.8Z"/><path class="cls-2" d="M73.34,3.14c0-.19,0-.36-.39-.58L68.84.22A1.16,1.16,0,0,0,68,0L62.52,1.53c-.12,0-.45,0-.64.7S60.46,7.09,60.4,7.35s-.29.63.27,1l5.9,3.43a.93.93,0,0,0,1,.08l5.74-3.29a.54.54,0,0,0,.33-.62C73.56,7.24,73.35,3.32,73.34,3.14Z"/><path class="cls-5" d="M58.39,76.57a9.86,9.86,0,0,1-9.6.41,24.51,24.51,0,0,1-9.67-8.59c-.51-.76-1-1.58-1.53-2.43,0,0-.05-.08-.07-.13h0c-3.17-5.63-4-9.24-4.2-13.11a6.57,6.57,0,0,0-3.64,2.14c-1.47,1.77-1.85,4.23-1.28,7l.08,0-.08,0,1.17,3.48.18.08-.17-.06a26.83,26.83,0,0,0,7.24,9c7.83,6.49,17.58,8.4,21.2,4a6.22,6.22,0,0,0,1.26-2.64A5.84,5.84,0,0,1,58.39,76.57Z"/></g></g></svg>